<svg xmlns="http://www.w3.org/2000/svg" xmlns:xlink="http://www.w3.org/1999/xlink"><defs><symbol viewBox="0 0 24 24" id="check_circle"><path d="M12 2C6.48 2 2 6.48 2 12s4.48 10 10 10s10-4.48 10-10S17.52 2 12 2zm-2 15l-5-5l1.41-1.41L10 14.17l7.59-7.59L19 8l-9 9z" /></symbol><symbol viewBox="0 0 24 24" id="chevron_right"><path d="M10 6L8.59 7.41L13.17 12l-4.58 4.59L10 18l6-6z" /></symbol><symbol viewBox="0 0 24 24" id="info"><path d="M12 2C6.48 2 2 6.48 2 12s4.48 10 10 10s10-4.48 10-10S17.52 2 12 2zm1 15h-2v-6h2v6zm0-8h-2V7h2v2z" /></symbol><symbol viewBox="0 0 24 24" id="warning"><path d="M1 21h22L12 2L1 21zm12-3h-2v-2h2v2zm0-4h-2v-4h2v4z" /></symbol></defs></svg>