<svg id="Layer_1" data-name="Layer 1" xmlns="http://www.w3.org/2000/svg" width="294" height="219" viewBox="0 0 294 219">
  <defs>
    <style>
      .cls-1 {
        fill: #6200ee;
      }

      .cls-2 {
        fill: #fff;
      }

      .cls-3 {
        fill: #03dac6;
      }
    </style>
  </defs>
  <rect class="cls-1" width="294" height="219"/>
  <g>
    <rect class="cls-2" x="34" y="72.7" width="64" height="64" rx="5.06"/>
    <path class="cls-1" d="M85.2,123.9H46.8v-6.4H85.2ZM78.8,85.5h0L66,98.3,53.2,85.5H46.8v25.6h6.4V94.56L66,107.36l12.8-12.8V111.1h6.4V85.5Z"/>
  </g>
  <rect class="cls-3" x="212" y="111" width="38" height="26" rx="4"/>
  <g>
    <path class="cls-2" d="M147.16,73.5V97.3h-3.91v-17L136,92.3h-.48l-7.24-12v17h-3.91V73.5h4.22l7.17,11.9L143,73.5Z"/>
    <path class="cls-2" d="M165.15,80.3h3.67v17h-3.67V94.85a6.88,6.88,0,0,1-6,2.89,8,8,0,0,1-6-2.6,9.37,9.37,0,0,1,0-12.7,8,8,0,0,1,6-2.58,6.93,6.93,0,0,1,6,2.85Zm-9.22,12.39a5.54,5.54,0,0,0,7.69,0,5.71,5.71,0,0,0,0-7.78,5.54,5.54,0,0,0-7.69,0,5.71,5.71,0,0,0,0,7.78Z"/>
    <path class="cls-2" d="M182.59,83.84h-4.22V92a2,2,0,0,0,.48,1.51,2.21,2.21,0,0,0,1.41.51,23.18,23.18,0,0,0,2.33,0v3.3q-4.22.51-6.05-.73T174.7,92V83.84h-3.13V80.3h3.13V76.63l3.67-1.09V80.3h4.22Z"/>
    <path class="cls-2" d="M188.13,90.36a4.63,4.63,0,0,0,1.87,3,6,6,0,0,0,3.57,1A5,5,0,0,0,198,92.27L201,94a8.41,8.41,0,0,1-7.44,3.7,9.08,9.08,0,0,1-6.7-2.53,8.67,8.67,0,0,1-2.55-6.41,8.8,8.8,0,0,1,2.51-6.38,8.66,8.66,0,0,1,6.46-2.56,7.93,7.93,0,0,1,6.14,2.62,9,9,0,0,1,2.4,6.35,11.46,11.46,0,0,1-.14,1.53Zm0-3h10a4.71,4.71,0,0,0-4.86-4.18,5.16,5.16,0,0,0-3.4,1.12A5,5,0,0,0,188.1,87.37Z"/>
    <path class="cls-2" d="M208.7,83.16A5.2,5.2,0,0,1,213.93,80v4a5.5,5.5,0,0,0-3.67,1,4.35,4.35,0,0,0-1.56,3.76V97.3H205v-17h3.67Z"/>
    <path class="cls-2" d="M220.14,77.05a2.35,2.35,0,0,1-4-1.65,2.31,2.31,0,0,1,.68-1.65,2.37,2.37,0,0,1,3.34,0,2.31,2.31,0,0,1,.68,1.65A2.26,2.26,0,0,1,220.14,77.05ZM216.65,97.3v-17h3.68v17Z"/>
    <path class="cls-2" d="M238,80.3h3.67v17H238V94.85a6.87,6.87,0,0,1-5.95,2.89,7.94,7.94,0,0,1-6-2.6,9.34,9.34,0,0,1,0-12.7,8,8,0,0,1,6-2.58A6.91,6.91,0,0,1,238,82.71Zm-9.21,12.39a5.53,5.53,0,0,0,7.68,0,5.71,5.71,0,0,0,0-7.78,5.53,5.53,0,0,0-7.68,0,5.71,5.71,0,0,0,0,7.78Z"/>
    <path class="cls-2" d="M246,97.3V72.48h3.67V97.3Z"/>
    <path class="cls-2" d="M138.39,124a6,6,0,0,1,3.33,5.54,6.37,6.37,0,0,1-2.07,4.86,7.19,7.19,0,0,1-5.07,1.94h-10.2V112.5h9.45a7,7,0,0,1,4.95,1.89,6.16,6.16,0,0,1,2,4.71A5.69,5.69,0,0,1,138.39,124Zm-4.56-7.79h-5.54v6.26h5.54a2.94,2.94,0,0,0,2.18-.9,3.27,3.27,0,0,0,0-4.46A2.94,2.94,0,0,0,133.83,116.17Zm.75,16.46a3.1,3.1,0,0,0,2.3-1,3.47,3.47,0,0,0,0-4.73,3.1,3.1,0,0,0-2.3-1h-6.29v6.67Z"/>
    <path class="cls-2" d="M158.52,119.3h3.67v17h-3.67v-2.45a6.88,6.88,0,0,1-6,2.89,8,8,0,0,1-6-2.6,9.37,9.37,0,0,1,0-12.7,8,8,0,0,1,6-2.58,6.93,6.93,0,0,1,6,2.85Zm-9.22,12.39a5.54,5.54,0,0,0,7.69,0,5.71,5.71,0,0,0,0-7.78,5.54,5.54,0,0,0-7.69,0,5.71,5.71,0,0,0,0,7.78Z"/>
    <path class="cls-2" d="M169.67,124a1.48,1.48,0,0,0,.93,1.34,10.49,10.49,0,0,0,2.28.85q1.35.36,2.7.84a5.14,5.14,0,0,1,2.3,1.61,4.41,4.41,0,0,1,.93,2.88,4.53,4.53,0,0,1-1.88,3.84,7.77,7.77,0,0,1-4.75,1.39,8.42,8.42,0,0,1-4.31-1.05,6.11,6.11,0,0,1-2.62-2.93l3.16-1.83a3.61,3.61,0,0,0,3.77,2.45c1.93,0,2.89-.64,2.89-1.91a1.5,1.5,0,0,0-.93-1.32,10.45,10.45,0,0,0-2.28-.87c-.9-.24-1.8-.52-2.7-.83a5.32,5.32,0,0,1-2.3-1.58,4.23,4.23,0,0,1-.93-2.81,4.59,4.59,0,0,1,1.78-3.77,6.84,6.84,0,0,1,4.44-1.43,7.54,7.54,0,0,1,3.76.93,6.4,6.4,0,0,1,2.53,2.6l-3.09,1.74a3.62,3.62,0,0,0-5-1.48A1.51,1.51,0,0,0,169.67,124Z"/>
    <path class="cls-2" d="M184.49,129.36a4.67,4.67,0,0,0,1.87,3,6,6,0,0,0,3.57,1,5,5,0,0,0,4.39-2.11l3,1.77a8.4,8.4,0,0,1-7.44,3.7,9.08,9.08,0,0,1-6.7-2.53,8.67,8.67,0,0,1-2.55-6.41,8.76,8.76,0,0,1,2.52-6.38,8.64,8.64,0,0,1,6.46-2.56,7.91,7.91,0,0,1,6.13,2.62,9,9,0,0,1,2.4,6.35,11.46,11.46,0,0,1-.14,1.53Zm0-3h10a4.71,4.71,0,0,0-4.86-4.18,5.16,5.16,0,0,0-3.4,1.12A5.1,5.1,0,0,0,184.46,126.37Z"/>
  </g>
  <g>
    <path class="cls-2" d="M229.37,121h2.36l-3.9,10h-2.5l-3.9-10h2.36l2.8,7.6Z"/>
    <path class="cls-2" d="M232.45,131v-1.8l4.88-5c1.19-1.19,1.78-2.21,1.78-3.08a2.06,2.06,0,0,0-.61-1.59A2.16,2.16,0,0,0,237,119a2.75,2.75,0,0,0-2.6,1.74l-1.94-1.14a4.78,4.78,0,0,1,1.86-2.12,5.08,5.08,0,0,1,2.66-.72,4.64,4.64,0,0,1,3.16,1.16,4,4,0,0,1,1.32,3.16q0,2.14-2.38,4.56l-3.16,3.16h5.8V131Z"/>
  </g>
</svg>
