<svg version="1.2" xmlns="http://www.w3.org/2000/svg" xmlns:xlink="http://www.w3.org/1999/xlink" overflow="visible" preserveAspectRatio="none" viewBox="0 0 24 24" width="24" height="24"><g><path xmlns:default="http://www.w3.org/2000/svg" id="linkedin" d="M4.19,9.32v10.32h3.44V9.32H4.19z M7.85,6.14C7.86,5.66,7.67,5.2,7.32,4.86c-0.37-0.34-0.87-0.52-1.38-0.5  c-0.51-0.02-1.01,0.16-1.4,0.5C4.18,5.19,3.98,5.65,3.99,6.14C3.98,6.62,4.17,7.08,4.51,7.41c0.37,0.35,0.86,0.53,1.37,0.51l0,0  C6.4,7.94,6.91,7.76,7.29,7.41c0.35-0.33,0.55-0.79,0.53-1.27l0,0H7.85z M19.99,13.73c0.09-1.25-0.3-2.48-1.08-3.46  c-0.74-0.79-1.78-1.22-2.86-1.18c-0.4,0-0.8,0.05-1.19,0.16c-0.32,0.1-0.61,0.25-0.87,0.45c-0.21,0.16-0.41,0.34-0.59,0.54  c-0.16,0.18-0.3,0.38-0.43,0.58l0,0v-1.5H9.52v0.5c0,0.33,0,1.36,0,3.08s0,3.97,0,6.74h3.47v-5.76c-0.03-0.3,0-0.59,0.07-0.88  c0.14-0.35,0.37-0.65,0.66-0.89c0.31-0.25,0.7-0.37,1.1-0.36c0.52-0.04,1.02,0.2,1.32,0.62c0.31,0.52,0.45,1.11,0.42,1.71v5.52h3.43  V13.73L19.99,13.73z" vector-effect="non-scaling-stroke"/></g></svg>
